<mxfile host="app.diagrams.net" modified="2023-09-16T07:30:49.526Z" agent="Mozilla/5.0 (X11; Linux x86_64) AppleWebKit/537.36 (KHTML, like Gecko) Chrome/114.0.0.0 Safari/537.36" etag="pSmhioEgW0fGsMLfqOln" version="21.7.5" type="device">
  <diagram id="Dx65XONKSlelgJUsVHpR" name="Page-1">
    <mxGraphModel dx="1434" dy="803" grid="1" gridSize="10" guides="1" tooltips="1" connect="1" arrows="1" fold="1" page="1" pageScale="1" pageWidth="827" pageHeight="1169" math="0" shadow="0">
      <root>
        <mxCell id="0" />
        <mxCell id="1" parent="0" />
        <mxCell id="phIxGiBwTtDq_IwyOR1a-2" value="" style="rounded=0;whiteSpace=wrap;html=1;" parent="1" vertex="1">
          <mxGeometry x="266" y="210" width="430" height="620" as="geometry" />
        </mxCell>
        <mxCell id="phIxGiBwTtDq_IwyOR1a-3" value="Create Test Invoice" style="ellipse;whiteSpace=wrap;html=1;" parent="1" vertex="1">
          <mxGeometry x="356" y="320" width="96" height="50" as="geometry" />
        </mxCell>
        <mxCell id="CKjJwregdbNH1PwdeDzp-3" style="rounded=0;orthogonalLoop=1;jettySize=auto;html=1;exitX=1;exitY=0.5;exitDx=0;exitDy=0;entryX=0;entryY=0.5;entryDx=0;entryDy=0;dashed=1;" edge="1" parent="1" source="phIxGiBwTtDq_IwyOR1a-5" target="CKjJwregdbNH1PwdeDzp-1">
          <mxGeometry relative="1" as="geometry" />
        </mxCell>
        <mxCell id="CKjJwregdbNH1PwdeDzp-5" value="&amp;lt;&amp;lt;include&amp;gt;&amp;gt;" style="edgeLabel;html=1;align=center;verticalAlign=middle;resizable=0;points=[];" vertex="1" connectable="0" parent="CKjJwregdbNH1PwdeDzp-3">
          <mxGeometry x="0.07" y="1" relative="1" as="geometry">
            <mxPoint y="-1" as="offset" />
          </mxGeometry>
        </mxCell>
        <mxCell id="CKjJwregdbNH1PwdeDzp-4" style="rounded=0;orthogonalLoop=1;jettySize=auto;html=1;exitX=1;exitY=0.5;exitDx=0;exitDy=0;entryX=0;entryY=0.5;entryDx=0;entryDy=0;dashed=1;" edge="1" parent="1" source="phIxGiBwTtDq_IwyOR1a-5" target="CKjJwregdbNH1PwdeDzp-2">
          <mxGeometry relative="1" as="geometry" />
        </mxCell>
        <mxCell id="CKjJwregdbNH1PwdeDzp-6" value="&amp;lt;&amp;lt;extend&amp;gt;&amp;gt;" style="edgeLabel;html=1;align=center;verticalAlign=middle;resizable=0;points=[];" vertex="1" connectable="0" parent="CKjJwregdbNH1PwdeDzp-4">
          <mxGeometry x="0.033" y="1" relative="1" as="geometry">
            <mxPoint as="offset" />
          </mxGeometry>
        </mxCell>
        <mxCell id="phIxGiBwTtDq_IwyOR1a-5" value="Login" style="ellipse;whiteSpace=wrap;html=1;" parent="1" vertex="1">
          <mxGeometry x="356" y="262" width="96" height="50" as="geometry" />
        </mxCell>
        <mxCell id="phIxGiBwTtDq_IwyOR1a-6" value="VIew Test Invoice" style="ellipse;whiteSpace=wrap;html=1;" parent="1" vertex="1">
          <mxGeometry x="356" y="370" width="104" height="59" as="geometry" />
        </mxCell>
        <mxCell id="phIxGiBwTtDq_IwyOR1a-7" value="View Reports" style="ellipse;whiteSpace=wrap;html=1;" parent="1" vertex="1">
          <mxGeometry x="360" y="580" width="96" height="50" as="geometry" />
        </mxCell>
        <mxCell id="phIxGiBwTtDq_IwyOR1a-8" value="Manage Doctors" style="ellipse;whiteSpace=wrap;html=1;" parent="1" vertex="1">
          <mxGeometry x="356" y="760" width="96" height="50" as="geometry" />
        </mxCell>
        <mxCell id="phIxGiBwTtDq_IwyOR1a-9" value="Upload Reports" style="ellipse;whiteSpace=wrap;html=1;" parent="1" vertex="1">
          <mxGeometry x="360" y="640" width="96" height="50" as="geometry" />
        </mxCell>
        <mxCell id="phIxGiBwTtDq_IwyOR1a-10" value="Manage Patients&amp;nbsp;" style="ellipse;whiteSpace=wrap;html=1;" parent="1" vertex="1">
          <mxGeometry x="360" y="700" width="96" height="50" as="geometry" />
        </mxCell>
        <mxCell id="phIxGiBwTtDq_IwyOR1a-14" value="Diagnostic Center Management System" style="rounded=0;whiteSpace=wrap;html=1;strokeColor=none;fontSize=14;" parent="1" vertex="1">
          <mxGeometry x="306" y="220" width="350" height="28" as="geometry" />
        </mxCell>
        <mxCell id="phIxGiBwTtDq_IwyOR1a-22" style="rounded=0;orthogonalLoop=1;jettySize=auto;html=1;exitX=0.5;exitY=0.5;exitDx=0;exitDy=0;exitPerimeter=0;fontSize=14;" parent="1" source="phIxGiBwTtDq_IwyOR1a-15" target="phIxGiBwTtDq_IwyOR1a-5" edge="1">
          <mxGeometry relative="1" as="geometry" />
        </mxCell>
        <mxCell id="phIxGiBwTtDq_IwyOR1a-23" style="rounded=0;orthogonalLoop=1;jettySize=auto;html=1;exitX=0.5;exitY=0.5;exitDx=0;exitDy=0;exitPerimeter=0;entryX=0;entryY=0.5;entryDx=0;entryDy=0;fontSize=14;" parent="1" source="phIxGiBwTtDq_IwyOR1a-15" target="phIxGiBwTtDq_IwyOR1a-3" edge="1">
          <mxGeometry relative="1" as="geometry" />
        </mxCell>
        <mxCell id="phIxGiBwTtDq_IwyOR1a-24" style="rounded=0;orthogonalLoop=1;jettySize=auto;html=1;exitX=0.5;exitY=0.5;exitDx=0;exitDy=0;exitPerimeter=0;entryX=0;entryY=0.5;entryDx=0;entryDy=0;fontSize=14;" parent="1" source="phIxGiBwTtDq_IwyOR1a-15" target="phIxGiBwTtDq_IwyOR1a-6" edge="1">
          <mxGeometry relative="1" as="geometry" />
        </mxCell>
        <mxCell id="phIxGiBwTtDq_IwyOR1a-25" style="rounded=0;orthogonalLoop=1;jettySize=auto;html=1;exitX=0.5;exitY=0.5;exitDx=0;exitDy=0;exitPerimeter=0;entryX=0;entryY=0.5;entryDx=0;entryDy=0;fontSize=14;" parent="1" source="phIxGiBwTtDq_IwyOR1a-15" target="phIxGiBwTtDq_IwyOR1a-7" edge="1">
          <mxGeometry relative="1" as="geometry" />
        </mxCell>
        <mxCell id="VE3dkcwgCrBXXLlYdCvx-13" style="edgeStyle=none;rounded=0;orthogonalLoop=1;jettySize=auto;html=1;exitX=0.5;exitY=0.5;exitDx=0;exitDy=0;exitPerimeter=0;entryX=0;entryY=0.5;entryDx=0;entryDy=0;" parent="1" source="phIxGiBwTtDq_IwyOR1a-15" target="VE3dkcwgCrBXXLlYdCvx-6" edge="1">
          <mxGeometry relative="1" as="geometry" />
        </mxCell>
        <mxCell id="VE3dkcwgCrBXXLlYdCvx-14" style="edgeStyle=none;rounded=0;orthogonalLoop=1;jettySize=auto;html=1;exitX=0.5;exitY=0.5;exitDx=0;exitDy=0;exitPerimeter=0;entryX=0;entryY=0.5;entryDx=0;entryDy=0;" parent="1" source="phIxGiBwTtDq_IwyOR1a-15" target="VE3dkcwgCrBXXLlYdCvx-7" edge="1">
          <mxGeometry relative="1" as="geometry" />
        </mxCell>
        <mxCell id="phIxGiBwTtDq_IwyOR1a-15" value="Patient" style="shape=umlActor;verticalLabelPosition=bottom;verticalAlign=top;html=1;outlineConnect=0;fontSize=14;" parent="1" vertex="1">
          <mxGeometry x="150" y="360" width="30" height="58" as="geometry" />
        </mxCell>
        <mxCell id="phIxGiBwTtDq_IwyOR1a-28" style="rounded=0;orthogonalLoop=1;jettySize=auto;html=1;exitX=0.5;exitY=0.5;exitDx=0;exitDy=0;exitPerimeter=0;entryX=0;entryY=1;entryDx=0;entryDy=0;fontSize=14;" parent="1" source="phIxGiBwTtDq_IwyOR1a-17" target="phIxGiBwTtDq_IwyOR1a-5" edge="1">
          <mxGeometry relative="1" as="geometry" />
        </mxCell>
        <mxCell id="phIxGiBwTtDq_IwyOR1a-30" style="rounded=0;orthogonalLoop=1;jettySize=auto;html=1;exitX=0.5;exitY=0.5;exitDx=0;exitDy=0;exitPerimeter=0;entryX=0;entryY=0.5;entryDx=0;entryDy=0;fontSize=14;" parent="1" source="phIxGiBwTtDq_IwyOR1a-17" target="phIxGiBwTtDq_IwyOR1a-7" edge="1">
          <mxGeometry relative="1" as="geometry" />
        </mxCell>
        <mxCell id="phIxGiBwTtDq_IwyOR1a-31" style="rounded=0;orthogonalLoop=1;jettySize=auto;html=1;exitX=0.5;exitY=0.5;exitDx=0;exitDy=0;exitPerimeter=0;entryX=0;entryY=0.5;entryDx=0;entryDy=0;fontSize=14;" parent="1" source="phIxGiBwTtDq_IwyOR1a-17" target="phIxGiBwTtDq_IwyOR1a-9" edge="1">
          <mxGeometry relative="1" as="geometry" />
        </mxCell>
        <mxCell id="3frgtMceLTOeRdQTKk0o-8" style="rounded=0;orthogonalLoop=1;jettySize=auto;html=1;exitX=0.5;exitY=0.5;exitDx=0;exitDy=0;exitPerimeter=0;" parent="1" source="phIxGiBwTtDq_IwyOR1a-17" target="phIxGiBwTtDq_IwyOR1a-10" edge="1">
          <mxGeometry relative="1" as="geometry" />
        </mxCell>
        <mxCell id="3frgtMceLTOeRdQTKk0o-11" style="rounded=0;orthogonalLoop=1;jettySize=auto;html=1;exitX=0.5;exitY=0.5;exitDx=0;exitDy=0;exitPerimeter=0;entryX=0;entryY=0.5;entryDx=0;entryDy=0;" parent="1" source="phIxGiBwTtDq_IwyOR1a-17" target="phIxGiBwTtDq_IwyOR1a-6" edge="1">
          <mxGeometry relative="1" as="geometry" />
        </mxCell>
        <mxCell id="VE3dkcwgCrBXXLlYdCvx-12" style="edgeStyle=none;rounded=0;orthogonalLoop=1;jettySize=auto;html=1;exitX=0.5;exitY=0.5;exitDx=0;exitDy=0;exitPerimeter=0;entryX=0;entryY=0.5;entryDx=0;entryDy=0;" parent="1" source="phIxGiBwTtDq_IwyOR1a-17" target="VE3dkcwgCrBXXLlYdCvx-7" edge="1">
          <mxGeometry relative="1" as="geometry" />
        </mxCell>
        <mxCell id="phIxGiBwTtDq_IwyOR1a-17" value="Staff" style="shape=umlActor;verticalLabelPosition=bottom;verticalAlign=top;html=1;outlineConnect=0;fontSize=14;" parent="1" vertex="1">
          <mxGeometry x="140" y="640" width="30" height="64" as="geometry" />
        </mxCell>
        <mxCell id="phIxGiBwTtDq_IwyOR1a-49" style="edgeStyle=none;rounded=0;orthogonalLoop=1;jettySize=auto;html=1;exitX=0.5;exitY=0.5;exitDx=0;exitDy=0;exitPerimeter=0;fontSize=14;" parent="1" source="phIxGiBwTtDq_IwyOR1a-27" target="phIxGiBwTtDq_IwyOR1a-5" edge="1">
          <mxGeometry relative="1" as="geometry" />
        </mxCell>
        <mxCell id="phIxGiBwTtDq_IwyOR1a-50" style="edgeStyle=none;rounded=0;orthogonalLoop=1;jettySize=auto;html=1;exitX=0.5;exitY=0.5;exitDx=0;exitDy=0;exitPerimeter=0;entryX=1;entryY=0.5;entryDx=0;entryDy=0;fontSize=14;" parent="1" source="phIxGiBwTtDq_IwyOR1a-27" target="phIxGiBwTtDq_IwyOR1a-3" edge="1">
          <mxGeometry relative="1" as="geometry" />
        </mxCell>
        <mxCell id="phIxGiBwTtDq_IwyOR1a-51" style="edgeStyle=none;rounded=0;orthogonalLoop=1;jettySize=auto;html=1;exitX=0.5;exitY=0.5;exitDx=0;exitDy=0;exitPerimeter=0;entryX=1;entryY=0.5;entryDx=0;entryDy=0;fontSize=14;" parent="1" source="phIxGiBwTtDq_IwyOR1a-27" target="phIxGiBwTtDq_IwyOR1a-6" edge="1">
          <mxGeometry relative="1" as="geometry" />
        </mxCell>
        <mxCell id="phIxGiBwTtDq_IwyOR1a-52" style="edgeStyle=none;rounded=0;orthogonalLoop=1;jettySize=auto;html=1;exitX=0.5;exitY=0.5;exitDx=0;exitDy=0;exitPerimeter=0;entryX=1;entryY=0.5;entryDx=0;entryDy=0;fontSize=14;" parent="1" source="phIxGiBwTtDq_IwyOR1a-27" target="phIxGiBwTtDq_IwyOR1a-7" edge="1">
          <mxGeometry relative="1" as="geometry" />
        </mxCell>
        <mxCell id="phIxGiBwTtDq_IwyOR1a-74" style="edgeStyle=none;rounded=0;orthogonalLoop=1;jettySize=auto;html=1;exitX=0.5;exitY=0.5;exitDx=0;exitDy=0;exitPerimeter=0;entryX=1;entryY=0.5;entryDx=0;entryDy=0;fontSize=13;" parent="1" source="phIxGiBwTtDq_IwyOR1a-27" target="phIxGiBwTtDq_IwyOR1a-9" edge="1">
          <mxGeometry relative="1" as="geometry" />
        </mxCell>
        <mxCell id="phIxGiBwTtDq_IwyOR1a-75" style="edgeStyle=none;rounded=0;orthogonalLoop=1;jettySize=auto;html=1;exitX=0.5;exitY=0.5;exitDx=0;exitDy=0;exitPerimeter=0;entryX=1;entryY=0.5;entryDx=0;entryDy=0;fontSize=13;" parent="1" source="phIxGiBwTtDq_IwyOR1a-27" target="phIxGiBwTtDq_IwyOR1a-10" edge="1">
          <mxGeometry relative="1" as="geometry" />
        </mxCell>
        <mxCell id="phIxGiBwTtDq_IwyOR1a-76" style="edgeStyle=none;rounded=0;orthogonalLoop=1;jettySize=auto;html=1;exitX=0.5;exitY=0.5;exitDx=0;exitDy=0;exitPerimeter=0;entryX=1;entryY=0.5;entryDx=0;entryDy=0;fontSize=13;" parent="1" source="phIxGiBwTtDq_IwyOR1a-27" target="phIxGiBwTtDq_IwyOR1a-8" edge="1">
          <mxGeometry relative="1" as="geometry" />
        </mxCell>
        <mxCell id="VE3dkcwgCrBXXLlYdCvx-9" style="edgeStyle=none;rounded=0;orthogonalLoop=1;jettySize=auto;html=1;exitX=0.5;exitY=0.5;exitDx=0;exitDy=0;exitPerimeter=0;entryX=0.96;entryY=0.363;entryDx=0;entryDy=0;entryPerimeter=0;" parent="1" source="phIxGiBwTtDq_IwyOR1a-27" target="VE3dkcwgCrBXXLlYdCvx-6" edge="1">
          <mxGeometry relative="1" as="geometry" />
        </mxCell>
        <mxCell id="VE3dkcwgCrBXXLlYdCvx-11" style="edgeStyle=none;rounded=0;orthogonalLoop=1;jettySize=auto;html=1;exitX=0.5;exitY=0.5;exitDx=0;exitDy=0;exitPerimeter=0;entryX=0.96;entryY=0.373;entryDx=0;entryDy=0;entryPerimeter=0;" parent="1" source="phIxGiBwTtDq_IwyOR1a-27" target="VE3dkcwgCrBXXLlYdCvx-7" edge="1">
          <mxGeometry relative="1" as="geometry" />
        </mxCell>
        <mxCell id="phIxGiBwTtDq_IwyOR1a-27" value="Admin" style="shape=umlActor;verticalLabelPosition=bottom;verticalAlign=top;html=1;outlineConnect=0;fontSize=14;" parent="1" vertex="1">
          <mxGeometry x="740" y="340" width="30" height="60" as="geometry" />
        </mxCell>
        <mxCell id="phIxGiBwTtDq_IwyOR1a-70" value="" style="edgeStyle=none;rounded=0;orthogonalLoop=1;jettySize=auto;html=1;exitX=1;exitY=0.5;exitDx=0;exitDy=0;fontSize=14;endArrow=none;" parent="1" source="phIxGiBwTtDq_IwyOR1a-6" edge="1">
          <mxGeometry relative="1" as="geometry">
            <mxPoint x="452" y="406" as="sourcePoint" />
            <mxPoint x="463" y="407.233644859813" as="targetPoint" />
          </mxGeometry>
        </mxCell>
        <mxCell id="VE3dkcwgCrBXXLlYdCvx-6" value="Create Appointment" style="ellipse;whiteSpace=wrap;html=1;" parent="1" vertex="1">
          <mxGeometry x="358" y="443.5" width="100" height="51" as="geometry" />
        </mxCell>
        <mxCell id="VE3dkcwgCrBXXLlYdCvx-7" value="View Appointments" style="ellipse;whiteSpace=wrap;html=1;" parent="1" vertex="1">
          <mxGeometry x="360" y="509" width="100" height="51" as="geometry" />
        </mxCell>
        <mxCell id="CKjJwregdbNH1PwdeDzp-1" value="Register" style="ellipse;whiteSpace=wrap;html=1;" vertex="1" parent="1">
          <mxGeometry x="570" y="240" width="96" height="50" as="geometry" />
        </mxCell>
        <mxCell id="CKjJwregdbNH1PwdeDzp-2" value="Logout" style="ellipse;whiteSpace=wrap;html=1;" vertex="1" parent="1">
          <mxGeometry x="560" y="280" width="96" height="50" as="geometry" />
        </mxCell>
      </root>
    </mxGraphModel>
  </diagram>
</mxfile>
